<?xml version="1.0" standalone="no"?>
<!DOCTYPE svg PUBLIC "-//W3C//DTD SVG 20010904//EN"
 "http://www.w3.org/TR/2001/REC-SVG-20010904/DTD/svg10.dtd">
<svg version="1.0" xmlns="http://www.w3.org/2000/svg"
 width="512.000000pt" height="512.000000pt" viewBox="0 0 512.000000 512.000000"
 preserveAspectRatio="xMidYMid meet">
<metadata>
Created by potrace 1.11, written by Peter Selinger 2001-2013
</metadata>
<g transform="translate(0.000000,512.000000) scale(0.100000,-0.100000)"
fill="#000000" stroke="none">
<path d="M762 2938 l3 -2183 28 -57 c29 -60 77 -103 136 -124 27 -10 138 -13
444 -14 l408 0 282 -227 c155 -125 301 -244 325 -264 48 -42 116 -69 172 -69
83 0 116 22 440 295 l313 265 417 0 c466 0 476 1 545 68 21 20 48 57 59 82
l21 45 3 2183 2 2182 -1800 0 -1800 0 2 -2182z m2158 1952 l0 -60 -90 0 -90 0
0 60 0 60 90 0 90 0 0 -60z m260 0 l0 -60 -90 0 -90 0 0 60 0 60 90 0 90 0 0
-60z m-1800 -211 l0 -130 48 3 47 3 42 75 c96 171 107 180 236 180 l87 0 0
-55 0 -54 -82 -3 -83 -3 -48 -98 -49 -98 28 -21 c49 -37 143 -140 194 -215 28
-39 50 -74 50 -77 0 -3 -47 -6 -103 -6 l-104 0 -90 143 -91 142 -41 3 -41 3 0
-145 0 -146 -80 0 -80 0 0 315 0 315 80 0 80 0 0 -131z m772 -78 l3 -199 179
199 179 199 83 0 84 0 0 -310 0 -310 -80 0 -80 0 -2 207 -3 206 -189 -206
-189 -207 -68 0 -69 0 0 310 0 310 75 0 75 0 2 -199z m898 -111 l0 -310 -85 0
-85 0 0 310 0 310 85 0 85 0 0 -310z m711 294 c143 -40 191 -163 99 -251 l-29
-27 37 -21 c24 -13 45 -36 60 -67 33 -67 24 -119 -32 -174 -68 -68 -108 -76
-408 -82 l-258 -4 0 321 0 321 237 0 c187 0 249 -3 294 -16z m-976 -795 c458
-58 892 -374 1110 -809 97 -193 143 -381 152 -610 7 -180 -5 -285 -48 -449
-39 -149 -41 -151 -89 -151 -22 0 -40 2 -40 4 0 2 13 44 29 93 90 278 90 608
0 885 -113 348 -376 656 -699 818 -121 61 -211 93 -341 121 -137 31 -407 34
-539 6 -565 -119 -982 -537 -1106 -1107 -29 -132 -27 -440 4 -577 20 -89 42
-165 67 -225 6 -16 1 -18 -39 -18 l-45 0 -25 83 c-157 516 -49 1040 299 1447
164 192 399 348 645 430 209 70 427 89 665 59z m30 -176 c504 -95 902 -473
1030 -978 64 -253 52 -512 -37 -772 l-31 -93 -1198 0 -1198 0 -19 53 c-68 185
-86 286 -87 482 0 91 6 192 14 235 76 424 362 800 741 973 142 65 288 104 455
121 66 6 245 -5 330 -21z m1196 -2443 c98 -272 178 -501 178 -507 1 -10 -93
-13 -439 -13 l-439 0 -271 335 c-149 184 -273 335 -275 335 -2 0 84 -150 191
-334 107 -184 194 -339 194 -345 0 -10 -555 -593 -569 -599 -4 -1 -92 87 -197
195 -104 109 -233 244 -287 299 l-98 102 197 339 c108 186 199 343 201 348 6
13 21 31 -286 -348 l-265 -327 -443 0 -443 0 40 113 c22 61 104 291 182 510
l142 397 1255 -2 1255 -3 177 -495z"/>
<path d="M3410 4626 l0 -76 128 0 c145 0 195 11 219 46 13 20 14 30 5 50 -18
37 -54 46 -209 52 l-143 5 0 -77z"/>
<path d="M3410 4356 l0 -86 138 0 c146 0 202 10 233 41 27 27 24 71 -7 100
-25 23 -32 24 -195 27 l-169 4 0 -86z"/>
<path d="M1770 2859 c-184 -375 -336 -685 -338 -690 -2 -5 97 -9 230 -9 l233
0 125 251 c69 138 128 252 131 255 4 2 101 -111 215 -250 182 -223 211 -253
224 -241 8 8 103 122 210 254 107 132 197 240 200 240 3 1 63 -114 133 -254
l127 -255 234 0 235 0 -206 418 c-113 229 -266 540 -339 691 -103 210 -137
271 -146 263 -7 -6 -112 -148 -233 -316 -121 -168 -222 -305 -226 -306 -3 0
-108 142 -233 315 -126 173 -231 315 -235 315 -3 0 -157 -307 -341 -681z"/>
<path d="M1357 1748 c-12 -36 -240 -672 -283 -790 l-13 -38 374 0 374 0 337
418 c185 229 344 425 352 435 14 16 -13 17 -556 17 l-570 0 -15 -42z"/>
<path d="M2661 1770 c8 -11 165 -206 349 -434 l335 -415 373 0 c204 -1 372 2
372 6 0 4 -69 200 -152 435 l-153 428 -569 0 c-566 0 -568 0 -555 -20z"/>
<path d="M2331 1264 l-241 -416 227 -237 c124 -130 234 -244 243 -254 16 -17
29 -6 259 234 133 139 241 258 239 265 -5 20 -472 824 -479 824 -4 0 -115
-187 -248 -416z"/>
</g>
</svg>
